<svg t="1600043020200" class="icon" viewBox="0 0 1059 1024" version="1.1" xmlns="http://www.w3.org/2000/svg" p-id="4814" width="200" height="200"><path d="M93.03448291 946.48275898a31.03448291 31.03448291 0 0 1-31.03448291-31.03448291v-744.82758633a93.10344785 93.10344785 0 0 1 93.10344785-93.10344872h434.48275898a93.10344785 93.10344785 0 0 1 93.10344874 93.10344872v186.20689659h217.2413786a93.10344785 93.10344785 0 0 1 93.10344874 93.10344784v465.5172419a31.03448291 31.03448291 0 0 1-31.03448291 31.03448291H93.03448291z m496.55172392-806.89655215H155.10344785a31.03448291 31.03448291 0 0 0-31.03448203 31.03448291v713.79310342h93.10344785v-186.20689658a62.06896582 62.06896582 0 0 1 62.06896582-62.06896582h186.20689658a62.06896582 62.06896582 0 0 1 62.06896495 62.06896582v186.20689658h93.10344872v-713.79310342a31.03448291 31.03448291 0 0 0-31.03448291-31.03448291z m-124.13793076 558.62068975H279.24137949v186.20689658h186.20689658v-186.20689658z m434.48275811-279.31034444h-217.24137861v465.51724102h248.27586152v-434.48275899a31.03448291 31.03448291 0 0 0-31.03448291-31.03448203z m-403.4482752 31.03448203a31.03448291 31.03448291 0 0 1 3.63103418 61.85172481L496.48275898 512H248.20689658a31.03448291 31.03448291 0 0 1-3.63103418-61.85172393L248.20689658 449.93103418h248.2758624z m0-186.20689657a31.03448291 31.03448291 0 0 1 3.63103418 61.8517248L496.48275898 325.79310342H248.20689658a31.03448291 31.03448291 0 0 1-3.63103418-61.85172393L248.20689658 263.7241376h248.2758624z"  p-id="4815"></path></svg>